<svg xmlns="http://www.w3.org/2000/svg" width="400" height="400" viewBox="0 0 400 400" fill="none"><path d="M83.2089 138.59H62v21.271h21.2089V138.59z" fill="#00C7FD"></path><path d="M82.6808 249.41v-76.681H62.5286v76.606h20.1522v.075zm133.4422.757v-18.773c-2.943 0-5.434-.151-7.246-.454-2.113-.303-3.698-1.06-4.755-2.119-1.056-1.06-1.735-2.574-2.113-4.618-.302-1.892-.453-4.39-.453-7.418v-26.721h14.567v-17.335h-14.567v-29.825h-20.152v74.108c0 6.283.528 11.582 1.585 15.821 1.057 4.163 2.868 7.569 5.359 10.143 2.491 2.574 5.812 4.391 9.812 5.526 4.076 1.135 9.208 1.665 15.322 1.665h2.641zm115.328-.757V137h-20.152v112.41h20.152zm-169.444-69.111c-5.586-6.056-13.435-9.084-23.398-9.084-4.831 0-9.284.984-13.209 2.952-4 1.968-7.321 4.694-10.038 8.176l-1.057 1.438v-11.052H94.4551v76.606h20.0009v-40.801V209.972c.227-7.191 1.963-12.49 5.284-15.896 3.547-3.634 7.849-5.45 12.755-5.45 5.812 0 10.265 1.816 13.209 5.298 2.868 3.482 4.377 8.403 4.377 14.686V249.335h20.303v-43.451c.076-10.9-2.792-19.529-8.377-25.585zm138.876 30.657c0-5.526-.981-10.673-2.868-15.518-1.962-4.769-4.679-9.008-8.076-12.641-3.472-3.634-7.623-6.434-12.453-8.478-4.831-2.044-10.19-3.028-16.001-3.028-5.51 0-10.718 1.06-15.549 3.103-4.83 2.12-9.057 4.921-12.604 8.479-3.548 3.557-6.416 7.796-8.453 12.641-2.114 4.845-3.095 10.068-3.095 15.594 0 5.525.981 10.749 2.944 15.593 1.962 4.845 4.755 9.084 8.226 12.642 3.472 3.557 7.775 6.434 12.756 8.478 4.981 2.119 10.491 3.179 16.378 3.179 17.058 0 27.625-7.797 33.965-15.064l-14.492-11.052c-3.019 3.634-10.264 8.554-19.322 8.554-5.66 0-10.34-1.287-13.887-3.936-3.548-2.574-5.963-6.207-7.246-10.673l-.226-.682h60.003v-7.191zm-59.853-7.04c0-5.601 6.416-15.366 20.228-15.442 13.812 0 20.303 9.765 20.303 15.367l-40.531.075zm113.366 35.805c-.377-.908-.906-1.665-1.585-2.347-.679-.681-1.434-1.211-2.34-1.589-.905-.379-1.887-.606-2.868-.606-1.056 0-1.962.227-2.868.606-.906.378-1.66.908-2.34 1.589-.679.682-1.207 1.439-1.585 2.347-.377.908-.603 1.893-.603 2.877 0 1.059.226 1.968.603 2.876.378.908.906 1.665 1.585 2.347.68.681 1.434 1.211 2.34 1.589.906.379 1.887.606 2.868.606 1.057 0 1.963-.227 2.868-.606.906-.378 1.661-.908 2.34-1.589.679-.682 1.208-1.439 1.585-2.347.378-.908.604-1.892.604-2.876s-.226-1.969-.604-2.877zm-1.207 5.299c-.302.757-.755 1.438-1.284 1.968-.528.53-1.207.984-1.962 1.287-.755.303-1.509.454-2.415.454-.83 0-1.661-.151-2.415-.454-.755-.303-1.434-.757-1.963-1.287-.528-.53-.981-1.211-1.283-1.968-.302-.757-.453-1.514-.453-2.422 0-.833.151-1.666.453-2.423.302-.757.755-1.438 1.283-1.968.529-.53 1.208-.984 1.963-1.287.754-.302 1.509-.454 2.415-.454.83 0 1.66.152 2.415.454.755.303 1.434.757 1.962 1.287.529.53.982 1.211 1.284 1.968.301.757.452 1.514.452 2.423 0 .908-.151 1.665-.452 2.422zm-4.227-1.741c.604-.076 1.057-.303 1.434-.681.377-.379.604-.909.604-1.666 0-.832-.227-1.438-.755-1.892-.453-.454-1.283-.681-2.264-.681h-3.321v8.553h1.585v-3.482h1.132l2.113 3.482h1.661l-2.189-3.633zm-.83-1.287h-1.887v-2.422h1.887c.226 0 .453.075.679.151.226.076.377.227.453.379.151.151.151.378.151.681 0 .303-.076.53-.151.681-.151.152-.302.303-.453.379-.226.075-.453.151-.679.151z" fill="#0071C5"></path></svg>